Coordinates
version=1
nRows=19
nColumns=34
inDegrees=yes

Units are S.I. units (second, meters, Newtons, ...)
If the header above contains a line with 'inDegrees', this indicates whether rotational values are in degrees (yes) or radians (no).

endheader
time	pelvis_tilt	pelvis_list	pelvis_rotation	pelvis_tx	pelvis_ty	pelvis_tz	hip_flexion_r	hip_adduction_r	hip_rotation_r	knee_angle_r	ankle_angle_r	subtalar_angle_r	mtp_angle_r	hip_flexion_l	hip_adduction_l	hip_rotation_l	knee_angle_l	ankle_angle_l	subtalar_angle_l	mtp_angle_l	lumbar_extension	lumbar_bending	lumbar_rotation	arm_flex_r	arm_add_r	arm_rot_r	elbow_flex_r	pro_sup_r	arm_flex_l	arm_add_l	arm_rot_l	elbow_flex_l	pro_sup_l
      0.00000000	     -3.11304670	      0.86930078	     26.59505562	      0.38016727	      0.96460572	     -0.11086513	      3.35268381	      0.88844892	     -5.38379062	      5.28840680	      5.90851035	     -9.69818508	      0.00000000	      1.05456708	      2.87188553	     -4.78644114	      0.00000000	     -4.96712079	     -9.01063169	      0.00000000	     -4.17070164	     -0.01448656	      2.39364878	     -1.99396217	     -4.99958723	     -5.82823522	     28.17267595	     88.93820804	      2.49721383	     -7.45955014	     10.56503667	     25.47822053	     78.69648456
      0.01666670	     -3.95660183	      1.40510983	     27.07936669	      0.38092607	      0.96473943	     -0.11185007	      3.76425889	      0.09441254	     -7.07335884	      4.74948695	      6.00578642	     -7.87218249	      0.00000000	      2.14274735	      4.32443906	     -6.12537448	      0.55421658	     -4.09810621	     -6.19995607	      0.00000000	     -2.76724218	     -0.93971400	      2.30220477	     -2.59568649	     -4.43465935	     -9.24578365	     28.53723603	     88.30678975	      2.47856580	     -6.80448577	      5.80719206	     24.90839448	     77.68180077
      0.03333330	     -4.20891870	      1.80762247	     27.43914548	      0.38612841	      0.96813251	     -0.11253023	      2.96785003	     -0.06254790	     -8.37635955	      3.66496619	      5.07993904	     -7.49637048	      0.00000000	      2.02484423	      4.81721229	     -7.45099701	      0.27327603	     -2.89100388	     -2.90384310	      0.00000000	     -1.89520241	     -1.85083776	      1.82386835	     -2.74327837	     -3.62254195	    -10.25292493	     28.65365392	     88.14740725	      2.02017597	     -6.96609064	      5.33499382	     24.50349122	     77.58067402
      0.05000000	     -4.01161675	      2.16047905	     27.62377843	      0.38609437	      0.96760024	     -0.11230709	      2.20837446	     -0.16696972	     -9.30038706	      3.05040665	      5.00482932	     -6.97851532	      0.00000000	      1.36039050	      4.98598165	     -8.32250424	      0.00000000	     -2.15666260	     -0.85017354	      0.00000000	     -2.03030076	     -2.31179690	      2.02705217	     -2.80126982	     -3.39747877	    -10.69373382	     28.51415380	     88.01573808	      2.17008042	     -7.22043196	      5.26441154	     24.43942070	     77.54133870
      0.06666670	     -4.04154507	      2.23975304	     27.49743505	      0.38244647	      0.96769650	     -0.11139860	      2.14296158	     -0.21493753	     -9.33279390	      2.88552853	      5.08059516	     -6.98496662	      0.00000000	      1.39615881	      5.05937327	     -8.26741568	      0.00000000	     -2.13915734	     -0.80056354	      0.00000000	     -1.99053353	     -2.35507778	      2.13705409	     -2.65642190	     -3.43505583	    -10.69111946	     28.57095944	     88.01473761	      2.17580373	     -7.31246626	      5.25420995	     24.45102904	     77.53965566
      0.08333330	     -3.90148806	      2.60257388	     27.44061608	      0.38360897	      0.96825277	     -0.11215075	      1.61739301	     -0.46365726	     -9.22182628	      2.52066880	      4.99319971	     -6.61678990	      0.00000000	      1.22635471	      5.36737053	     -8.56752109	      0.00000000	     -2.38717220	     -0.61940065	      0.00000000	     -2.31870748	     -2.71860997	      2.49732719	     -2.57477361	     -3.40500291	    -10.50594389	     28.50615517	     88.03317082	      2.36342797	     -7.42175648	      5.28123252	     24.65993110	     77.53784297
      0.10000000	     -3.35149124	      2.82980187	     27.45367236	      0.38528458	      0.96910985	     -0.11259188	      0.94646065	     -0.42083340	     -9.52131441	      2.07609106	      4.57706895	     -6.28044423	      0.00000000	      0.66616586	      5.33462201	     -8.88017826	      0.00000000	     -2.55096126	     -0.27806049	      0.00000000	     -3.18209066	     -2.67433990	      2.84553460	     -2.30921751	     -3.62415762	     -9.97150711	     28.45221849	     88.09902215	      2.73846709	     -7.28455524	      5.43191290	     24.83793296	     77.54706770
      0.11666670	     -3.18792608	      2.84415463	     27.64475274	      0.38467302	      0.97297467	     -0.11213506	      0.67435263	     -0.33535207	     -9.61143381	      1.71052463	      4.11353907	     -6.09920906	      0.00000000	      0.48238344	      5.25145317	     -8.74640964	      0.00000000	     -2.82011771	      0.11930292	      0.00000000	     -3.36854833	     -2.63068415	      2.77943473	     -2.16259161	     -3.65048482	     -9.70500884	     28.43340205	     88.13932608	      2.94636020	     -7.24857220	      5.48024952	     24.75630779	     77.55422252
      0.13333330	     -3.24089428	      2.79684996	     27.65369400	      0.38927059	      0.96880997	     -0.11492963	      0.67203829	     -0.33109639	     -9.60437718	      1.72482180	      4.10639925	     -6.09598953	      0.00000000	      0.39692930	      5.25223575	     -8.73556279	      0.00000000	     -2.81889307	      0.12467759	      0.00000000	     -3.38263943	     -2.63235787	      2.78937844	     -2.15181245	     -3.64847150	     -9.70191493	     28.43574675	     88.13997185	      2.94008627	     -7.24735149	      5.48060171	     24.75284511	     77.55426102
      0.15000000	     -2.54130130	      2.89029714	     27.72796143	      0.38908526	      0.97065894	     -0.11510932	     -0.31299147	     -0.04282405	     -9.49380127	      1.30419879	      3.43851357	     -6.13411244	      0.00000000	     -0.45199648	      5.00914232	     -8.47723336	      0.00000000	     -2.42134150	      0.33942921	      0.00000000	     -4.12925457	     -2.36611474	      2.89512499	     -2.14435213	     -3.74788705	     -9.21367018	     28.47413572	     88.28418300	      2.88305517	     -7.11990519	      5.47764459	     24.61400785	     77.58871000
      0.16666670	     -2.55591841	      2.86001631	     27.73799019	      0.38732276	      0.97139560	     -0.11501270	     -0.29175602	     -0.04498985	     -9.49057126	      1.29186685	      3.43445254	     -6.13242806	      0.00000000	     -0.50339444	      5.01324443	     -8.47738213	      0.00000000	     -2.42280861	      0.34085948	      0.00000000	     -4.12769628	     -2.36804414	      2.89721146	     -2.14488349	     -3.74996404	     -9.21259733	     28.47465177	     88.28467182	      2.87678615	     -7.11844373	      5.47810569	     24.61207479	     77.58902674
      0.18333330	     -2.50208325	      2.79642081	     27.79454213	      0.38753041	      0.97418868	     -0.11420078	     -0.34384338	      0.05635613	     -9.35651622	      1.20098163	      3.29196084	     -6.04048158	      0.00000000	     -0.54522547	      4.90232493	     -8.33096570	      0.00000000	     -2.42199357	      0.43063655	      0.00000000	     -4.21692759	     -2.37857635	      2.91557281	     -2.11300653	     -3.81876085	     -9.19277022	     28.49169939	     88.29706835	      2.78794995	     -7.03416944	      5.49883208	     24.57400604	     77.60069783
      0.20000000	     -2.04161151	      2.97891558	     27.87501852	      0.38692382	      0.97276720	     -0.11379824	     -1.20320027	      0.17792128	     -9.19821273	      0.39429312	      2.68951011	     -6.15594938	      0.00000000	     -1.15598150	      4.82859847	     -8.17625679	      0.00000000	     -1.99986433	      0.80881274	      0.00000000	     -4.97312372	     -2.18865332	      2.62139544	     -2.00779883	     -3.95143619	     -8.80430566	     28.64052255	     88.49980592	      3.07070215	     -7.06090336	      5.62339013	     24.44835433	     77.79907597
      0.21666670	     -2.05211312	      2.97782872	     27.77562384	      0.38490290	      0.97028984	     -0.11227147	     -1.14910665	      0.16250239	     -9.15968645	      0.32202157	      2.69376311	     -6.14229498	      0.00000000	     -1.18073983	      4.80851116	     -8.13053801	      0.00000000	     -1.99595160	      0.83476879	      0.00000000	     -5.00727084	     -2.20326599	      2.58557870	     -2.01252135	     -3.96036080	     -8.79764273	     28.64077285	     88.50503495	      3.13097363	     -7.06785936	      5.62647897	     24.46806397	     77.80598388
      0.23333330	     -2.07074474	      2.98581942	     27.76685149	      0.38617048	      0.97103028	     -0.11286571	     -1.14888158	      0.14675361	     -9.14779926	      0.31472584	      2.69393499	     -6.13733841	      0.00000000	     -1.18009849	      4.78455993	     -8.12520517	      0.00000000	     -1.99774978	      0.83830929	      0.00000000	     -5.01748101	     -2.20724343	      2.58014674	     -2.00843383	     -3.96310033	     -8.79685077	     28.64229764	     88.50590544	      3.14471361	     -7.06896138	      5.62725166	     24.47260037	     77.80731142
      0.25000000	     -2.11327074	      2.98966496	     27.68604038	      0.38586261	      0.97107540	     -0.11273545	     -1.16714329	      0.14203725	     -9.01999860	      0.24610175	      2.67953505	     -6.07029222	      0.00000000	     -1.15522939	      4.80040299	     -8.08872594	      0.00000000	     -2.06893489	      0.89454683	      0.00000000	     -5.09304521	     -2.26880925	      2.49907812	     -2.00248969	     -3.98561868	     -8.78864133	     28.64883555	     88.51586149	      3.29575097	     -7.08221518	      5.64034595	     24.52595289	     77.82415357
      0.26666670	     -1.84001594	      3.17962227	     27.60195127	      0.38512757	      0.97376315	     -0.11205982	     -1.58716656	      0.14397053	     -8.77310079	      0.10891660	      2.50845552	     -5.99190611	      0.00000000	     -1.55269713	      4.83425538	     -8.45795758	      0.00000000	     -2.46033087	      1.15371451	      0.00000000	     -5.67272096	     -2.38198152	      2.57845929	     -1.82917258	     -4.01551724	     -8.62939086	     28.77681144	     88.66543141	      3.44279155	     -7.17038357	      5.91047957	     24.64899665	     78.08290588
      0.28333330	     -1.84041235	      3.17469840	     27.61462529	      0.38683744	      0.97245759	     -0.11302608	     -1.53381728	      0.15704329	     -8.77344864	      0.08884126	      2.50560913	     -5.99293256	      0.00000000	     -1.60917206	      4.83630911	     -8.45639013	      0.00000000	     -2.45793855	      1.15650921	      0.00000000	     -5.68177450	     -2.38122484	      2.57923599	     -1.82472994	     -4.01446721	     -8.62849389	     28.77764312	     88.66626037	      3.44685092	     -7.16978352	      5.91196835	     24.65007502	     78.08438578
      0.30000000	     -1.74995521	      3.08928182	     27.56905421	      0.38960856	      0.97659668	     -0.11476522	     -1.57238273	      0.30284575	     -8.96669361	      0.00000000	      2.32067554	     -6.04960677	      0.00000000	     -1.70028458	      4.69607574	     -8.47848055	      0.00000000	     -2.47095651	      1.21583628	      0.00000000	     -5.75316785	     -2.37233028	      2.63330380	     -1.83677119	     -3.98212717	     -8.61217869	     28.76378092	     88.68432925	      3.31497850	     -7.08711327	      5.96359315	     24.61057838	     78.11976487
